<svg width="23" height="25" viewBox="0 0 23 25" fill="none" xmlns="http://www.w3.org/2000/svg">
<g clip-path="url(#clip0)">
<path d="M19.3846 2.23602C19.7785 1.80393 20.3137 1.55886 20.8732 1.55438C21.4328 1.5499 21.9713 1.78637 22.3709 2.21211C22.7706 2.63785 22.9989 3.21824 23.0061 3.82643C23.0133 4.43463 22.7986 5.02118 22.4091 5.45789L11.1391 20.772C10.9455 20.9985 10.7119 21.1804 10.4522 21.3066C10.1925 21.4329 9.91204 21.501 9.62759 21.5068C9.34315 21.5126 9.06054 21.4561 8.79664 21.3406C8.53274 21.2251 8.29297 21.0529 8.09163 20.8345L0.619505 12.7157C0.222434 12.2839 -0.000561977 11.6983 -0.000427185 11.0878C-0.000292393 10.4773 0.222962 9.89184 0.620224 9.46024C1.01748 9.02864 1.55621 8.78625 2.11789 8.7864C2.67957 8.78655 3.21818 9.02921 3.61526 9.46102L9.52482 15.886L19.3286 2.30789C19.3464 2.28319 19.3656 2.2597 19.3861 2.23758L19.3846 2.23602Z" fill="white"/>
</g>
<defs>
<clipPath id="clip0">
<rect width="23" height="25" fill="white"/>
</clipPath>
</defs>
</svg>
