<svg width="26" height="25" viewBox="0 0 26 25" fill="none" xmlns="http://www.w3.org/2000/svg">
<path fill-rule="evenodd" clip-rule="evenodd" d="M13.0012 15.8262L19.1661 22.1381C19.7845 22.7762 20.1869 22.7827 20.8166 22.1381L22.0536 20.8714C22.6595 20.2512 22.7006 19.8441 22.0536 19.1816L15.5268 12.5L22.0541 5.81846C22.6655 5.19048 22.6774 4.76667 22.0541 4.12798L20.8172 2.86191C20.1756 2.20477 19.7792 2.23513 19.1667 2.86191L13.0012 9.17382L6.83629 2.86251C6.22379 2.23572 5.82736 2.20536 5.18569 2.86251L3.94879 4.12858C3.32498 4.76727 3.33629 5.19108 3.94879 5.81905L10.4756 12.5L3.94879 19.1816C3.30177 19.8441 3.33629 20.2512 3.94879 20.8714L5.1851 22.1381C5.8095 22.7827 6.21189 22.7762 6.83569 22.1381L13.0012 15.8262V15.8262Z" fill="white"/>
</svg>
